<?xml version="1.0" standalone="no"?>
<!DOCTYPE svg PUBLIC "-//W3C//DTD SVG 20010904//EN"
 "http://www.w3.org/TR/2001/REC-SVG-20010904/DTD/svg10.dtd">
<svg version="1.0" xmlns="http://www.w3.org/2000/svg"
 width="1280.000000pt" height="1104.000000pt" viewBox="0 0 1280.000000 1104.000000"
 preserveAspectRatio="xMidYMid meet">
<metadata>
Created by potrace 1.15, written by Peter Selinger 2001-2017
</metadata>
<g transform="translate(0.000000,1104.000000) scale(0.100000,-0.100000)"
fill="#000000" stroke="none">
<path d="M2844 11025 c-324 -70 -547 -370 -520 -696 13 -158 74 -287 191 -405
135 -136 277 -196 464 -196 185 0 327 58 457 187 136 135 197 276 198 460 1
115 -13 181 -59 280 -128 278 -436 434 -731 370z m254 -89 c343 -74 538 -442
406 -765 -112 -276 -419 -420 -699 -326 -133 44 -229 119 -306 237 -179 278
-69 661 231 806 126 61 239 75 368 48z"/>
<path d="M10810 9669 c-177 -30 -337 -181 -385 -364 -55 -214 56 -451 259
-550 242 -119 528 -22 646 219 132 266 2 582 -276 675 -74 24 -172 32 -244 20z
m156 -90 c123 -23 238 -112 292 -227 24 -50 27 -69 27 -162 0 -93 -3 -112 -27
-162 -75 -160 -255 -258 -420 -229 -135 23 -244 107 -301 229 -28 60 -31 77
-31 162 0 82 4 103 27 154 55 119 144 196 266 228 80 20 91 21 167 7z"/>
<path d="M4116 9658 c-185 -21 -353 -169 -401 -353 -44 -171 4 -345 129 -471
262 -261 709 -143 808 215 42 153 8 316 -91 437 -109 131 -267 192 -445 172z
m239 -123 c211 -103 288 -371 163 -567 -113 -178 -353 -238 -533 -133 -60 36
-132 115 -163 183 -24 50 -27 69 -27 162 0 94 3 111 27 160 51 104 130 176
231 212 40 14 74 18 147 15 82 -2 104 -7 155 -32z"/>
<path d="M2390 9573 c-79 -13 -185 -50 -259 -89 -276 -146 -441 -404 -458
-714 -9 -172 35 -346 125 -495 80 -131 238 -268 387 -333 127 -55 185 -66 345
-66 128 1 155 4 235 28 375 113 617 437 617 826 -1 406 -281 751 -678 835 -64
14 -253 18 -314 8z m375 -117 c200 -68 380 -229 462 -414 89 -201 86 -457 -7
-643 -145 -290 -423 -454 -735 -436 -510 30 -848 537 -680 1020 84 239 281
418 535 487 113 30 314 24 425 -14z"/>
<path d="M11787 8894 c-282 -51 -531 -254 -637 -517 -48 -120 -63 -199 -62
-332 0 -88 6 -141 21 -200 83 -317 339 -564 655 -632 93 -20 271 -19 360 1
412 96 694 463 673 876 -27 521 -499 897 -1010 804z m284 -89 c253 -44 464
-207 569 -439 148 -327 43 -727 -244 -930 -147 -105 -277 -147 -451 -147 -304
-1 -565 163 -695 435 -53 112 -73 200 -73 326 0 124 19 211 68 317 86 187 230
324 413 396 141 55 268 68 413 42z"/>
<path d="M757 8029 c-282 -32 -544 -219 -667 -474 -65 -134 -84 -217 -83 -380
0 -123 3 -151 26 -228 15 -48 41 -116 58 -150 233 -461 812 -616 1241 -331
184 122 311 308 364 530 24 101 22 286 -5 389 -93 353 -378 601 -741 645 -92
11 -94 11 -193 -1z m293 -111 c271 -68 487 -286 555 -563 23 -91 23 -256 1
-350 -22 -92 -93 -235 -153 -310 -98 -120 -240 -211 -400 -257 -90 -26 -261
-30 -353 -10 -138 31 -265 98 -367 195 -387 365 -293 1000 183 1240 168 85
345 103 534 55z"/>
<path d="M5630 7993 c-668 -35 -1237 -212 -1730 -537 -170 -112 -293 -213
-511 -419 -726 -686 -1161 -1342 -1304 -1970 -46 -200 -59 -500 -30 -691 20
-134 65 -302 110 -411 20 -50 38 -99 40 -110 5 -32 95 -173 147 -230 25 -28
73 -70 106 -94 l60 -44 -56 -49 c-32 -26 -160 -121 -287 -210 -472 -330 -616
-447 -886 -717 -290 -290 -506 -559 -596 -741 -165 -333 -212 -655 -123 -837
36 -73 83 -115 160 -144 75 -29 218 -22 338 16 232 73 580 279 707 418 140
154 227 294 445 717 226 439 309 570 438 692 113 106 215 154 352 165 151 12
357 -55 417 -134 25 -32 28 -45 28 -107 0 -63 -5 -81 -41 -156 -53 -110 -175
-271 -414 -545 -301 -345 -421 -505 -493 -657 -56 -118 -70 -186 -64 -308 12
-213 74 -369 196 -491 82 -82 154 -123 271 -155 88 -24 303 -24 415 0 355 76
693 295 809 523 17 34 41 122 66 245 150 720 242 1002 381 1178 76 97 224 165
293 136 58 -25 71 -49 71 -135 -1 -110 -36 -212 -198 -566 -166 -365 -225
-529 -242 -675 -7 -60 14 -209 42 -295 42 -132 133 -270 230 -349 165 -137
352 -194 600 -183 157 6 251 30 388 97 196 96 314 227 372 415 14 47 18 91 17
205 -1 153 -3 175 -64 615 -67 483 -72 690 -18 832 51 137 162 190 306 148
106 -32 145 -95 144 -235 -1 -106 -14 -173 -108 -531 -119 -458 -151 -655
-128 -800 31 -191 88 -354 170 -486 223 -357 640 -477 1059 -302 215 89 413
280 494 473 40 97 65 240 56 326 -22 215 -81 348 -300 674 -243 362 -295 470
-295 608 0 170 135 287 319 276 85 -4 129 -34 170 -116 52 -104 71 -209 101
-557 41 -481 76 -641 173 -787 65 -100 237 -264 361 -347 397 -264 931 -382
1301 -286 204 52 356 190 394 356 51 219 -68 556 -297 843 -176 220 -398 397
-886 706 -337 213 -380 272 -246 340 162 82 365 107 505 63 170 -53 331 -205
487 -458 80 -131 83 -136 231 -410 232 -431 332 -580 493 -735 119 -114 354
-259 524 -323 151 -57 323 -75 443 -47 133 31 273 143 336 268 63 124 76 190
76 377 0 145 -4 183 -24 258 -29 114 -80 240 -133 331 -88 151 -423 505 -652
688 -235 188 -392 289 -846 541 -168 93 -360 203 -427 244 l-123 74 65 64 c70
70 106 133 199 351 69 165 118 319 148 464 20 100 23 144 23 330 0 164 -5 236
-18 305 -107 540 -409 1053 -957 1619 -222 229 -333 324 -559 474 -667 445
-1333 722 -2061 856 -311 57 -684 84 -960 69z"/>
<path d="M10534 7505 c-198 -43 -361 -169 -448 -347 -98 -197 -100 -395 -7
-583 114 -231 334 -368 591 -368 185 0 327 59 460 193 136 136 194 275 194
465 0 256 -142 479 -376 590 -129 62 -279 80 -414 50z m317 -107 c139 -51 245
-139 311 -258 55 -98 72 -168 71 -285 -1 -80 -6 -115 -26 -174 -112 -321 -476
-475 -782 -330 -137 65 -252 197 -297 342 -32 101 -32 246 0 338 27 80 80 170
130 223 71 74 196 142 307 166 70 16 213 4 286 -22z"/>
</g>
</svg>
